<mxfile host="app.diagrams.net" modified="2024-06-30T05:04:55.011Z" agent="Mozilla/5.0 (Windows NT 10.0; Win64; x64) AppleWebKit/537.36 (KHTML, like Gecko) Chrome/126.0.0.0 Safari/537.36" etag="FkfJoaImjJWV2DJw21S8" version="24.4.2" type="google">
  <diagram name="Page-1" id="9f46799a-70d6-7492-0946-bef42562c5a5">
    <mxGraphModel grid="1" page="1" gridSize="10" guides="1" tooltips="1" connect="1" arrows="1" fold="1" pageScale="1" pageWidth="1100" pageHeight="850" background="none" math="0" shadow="0">
      <root>
        <mxCell id="0" />
        <mxCell id="1" parent="0" />
        <mxCell id="tEZHD4hUg0ClfGhjTIx1-39" value="" style="group" connectable="0" vertex="1" parent="1">
          <mxGeometry x="70" y="100" width="810" height="602" as="geometry" />
        </mxCell>
        <mxCell id="tEZHD4hUg0ClfGhjTIx1-38" value="" style="rounded=1;whiteSpace=wrap;html=1;fillColor=none;dashed=1;dashPattern=8 8;" vertex="1" parent="tEZHD4hUg0ClfGhjTIx1-39">
          <mxGeometry width="810" height="602" as="geometry" />
        </mxCell>
        <mxCell id="tEZHD4hUg0ClfGhjTIx1-10" value="&lt;b&gt;TradeGenerator&lt;/b&gt;:&lt;div&gt;&lt;br&gt;&lt;div&gt;Generate random trade records&lt;/div&gt;&lt;/div&gt;" style="rounded=0;whiteSpace=wrap;html=1;" vertex="1" parent="tEZHD4hUg0ClfGhjTIx1-39">
          <mxGeometry x="50" y="42" width="180" height="60" as="geometry" />
        </mxCell>
        <mxCell id="tEZHD4hUg0ClfGhjTIx1-14" value="Queue (ActiveMQ)" style="sketch=0;outlineConnect=0;fontColor=#232F3E;gradientColor=none;strokeColor=#232F3E;fillColor=#ffffff;dashed=0;verticalLabelPosition=bottom;verticalAlign=top;align=center;html=1;fontSize=12;fontStyle=0;aspect=fixed;shape=mxgraph.aws4.resourceIcon;resIcon=mxgraph.aws4.queue;" vertex="1" parent="tEZHD4hUg0ClfGhjTIx1-39">
          <mxGeometry x="360" y="71" width="102" height="102" as="geometry" />
        </mxCell>
        <mxCell id="tEZHD4hUg0ClfGhjTIx1-15" value="&lt;b&gt;BookingService&lt;/b&gt;:&lt;div&gt;&lt;br&gt;&lt;div&gt;Book trades to the database&lt;/div&gt;&lt;/div&gt;" style="rounded=0;whiteSpace=wrap;html=1;" vertex="1" parent="tEZHD4hUg0ClfGhjTIx1-39">
          <mxGeometry x="590" y="92" width="180" height="60" as="geometry" />
        </mxCell>
        <mxCell id="tEZHD4hUg0ClfGhjTIx1-16" value="&lt;b&gt;Any&lt;/b&gt;&lt;div&gt;&lt;b&gt;upstream sources&lt;/b&gt;&lt;/div&gt;" style="rounded=0;whiteSpace=wrap;html=1;" vertex="1" parent="tEZHD4hUg0ClfGhjTIx1-39">
          <mxGeometry x="50" y="162" width="180" height="60" as="geometry" />
        </mxCell>
        <mxCell id="tEZHD4hUg0ClfGhjTIx1-18" value="" style="endArrow=classic;html=1;rounded=0;" edge="1" parent="tEZHD4hUg0ClfGhjTIx1-39">
          <mxGeometry width="50" height="50" relative="1" as="geometry">
            <mxPoint x="250" y="72" as="sourcePoint" />
            <mxPoint x="350" y="122" as="targetPoint" />
          </mxGeometry>
        </mxCell>
        <mxCell id="tEZHD4hUg0ClfGhjTIx1-19" value="" style="endArrow=classic;html=1;rounded=0;" edge="1" parent="tEZHD4hUg0ClfGhjTIx1-39">
          <mxGeometry width="50" height="50" relative="1" as="geometry">
            <mxPoint x="250" y="192" as="sourcePoint" />
            <mxPoint x="350" y="132" as="targetPoint" />
          </mxGeometry>
        </mxCell>
        <mxCell id="tEZHD4hUg0ClfGhjTIx1-20" value="publishes&lt;div&gt;trades&lt;/div&gt;" style="text;html=1;align=center;verticalAlign=middle;resizable=0;points=[];autosize=1;strokeColor=none;fillColor=none;" vertex="1" parent="tEZHD4hUg0ClfGhjTIx1-39">
          <mxGeometry x="250" y="112" width="70" height="40" as="geometry" />
        </mxCell>
        <mxCell id="tEZHD4hUg0ClfGhjTIx1-21" value="" style="endArrow=classic;html=1;rounded=0;" edge="1" parent="tEZHD4hUg0ClfGhjTIx1-39">
          <mxGeometry width="50" height="50" relative="1" as="geometry">
            <mxPoint x="480" y="122" as="sourcePoint" />
            <mxPoint x="580" y="122" as="targetPoint" />
          </mxGeometry>
        </mxCell>
        <mxCell id="tEZHD4hUg0ClfGhjTIx1-22" value="consumes" style="text;html=1;align=center;verticalAlign=middle;resizable=0;points=[];autosize=1;strokeColor=none;fillColor=none;" vertex="1" parent="tEZHD4hUg0ClfGhjTIx1-39">
          <mxGeometry x="490" y="92" width="80" height="30" as="geometry" />
        </mxCell>
        <mxCell id="tEZHD4hUg0ClfGhjTIx1-23" value="" style="shape=cylinder3;whiteSpace=wrap;html=1;boundedLbl=1;backgroundOutline=1;size=15;" vertex="1" parent="tEZHD4hUg0ClfGhjTIx1-39">
          <mxGeometry x="650" y="267" width="60" height="80" as="geometry" />
        </mxCell>
        <mxCell id="tEZHD4hUg0ClfGhjTIx1-24" value="" style="endArrow=classic;html=1;rounded=0;" edge="1" parent="tEZHD4hUg0ClfGhjTIx1-39">
          <mxGeometry width="50" height="50" relative="1" as="geometry">
            <mxPoint x="680" y="172" as="sourcePoint" />
            <mxPoint x="680" y="252" as="targetPoint" />
          </mxGeometry>
        </mxCell>
        <mxCell id="tEZHD4hUg0ClfGhjTIx1-25" value="books" style="text;html=1;align=center;verticalAlign=middle;resizable=0;points=[];autosize=1;strokeColor=none;fillColor=none;" vertex="1" parent="tEZHD4hUg0ClfGhjTIx1-39">
          <mxGeometry x="680" y="202" width="60" height="30" as="geometry" />
        </mxCell>
        <mxCell id="tEZHD4hUg0ClfGhjTIx1-26" value="Database (MySQL)" style="text;html=1;align=center;verticalAlign=middle;resizable=0;points=[];autosize=1;strokeColor=none;fillColor=none;" vertex="1" parent="tEZHD4hUg0ClfGhjTIx1-39">
          <mxGeometry x="615" y="362" width="130" height="30" as="geometry" />
        </mxCell>
        <mxCell id="tEZHD4hUg0ClfGhjTIx1-28" value="&lt;b&gt;ViewService&lt;/b&gt;:&lt;div&gt;&lt;br&gt;&lt;div&gt;Provide standardized view of&amp;nbsp;&amp;nbsp;&lt;span style=&quot;background-color: initial;&quot;&gt;trade-related information, such as position&lt;/span&gt;&lt;/div&gt;&lt;/div&gt;" style="rounded=0;whiteSpace=wrap;html=1;" vertex="1" parent="tEZHD4hUg0ClfGhjTIx1-39">
          <mxGeometry x="310" y="260" width="180" height="95" as="geometry" />
        </mxCell>
        <mxCell id="tEZHD4hUg0ClfGhjTIx1-33" value="" style="endArrow=classic;html=1;rounded=0;" edge="1" parent="tEZHD4hUg0ClfGhjTIx1-39">
          <mxGeometry width="50" height="50" relative="1" as="geometry">
            <mxPoint x="610" y="307" as="sourcePoint" />
            <mxPoint x="510" y="307" as="targetPoint" />
          </mxGeometry>
        </mxCell>
        <mxCell id="tEZHD4hUg0ClfGhjTIx1-34" value="retrieve &amp;amp;&lt;div&gt;aggregate&lt;/div&gt;" style="text;html=1;align=center;verticalAlign=middle;resizable=0;points=[];autosize=1;strokeColor=none;fillColor=none;" vertex="1" parent="tEZHD4hUg0ClfGhjTIx1-39">
          <mxGeometry x="520" y="260" width="80" height="40" as="geometry" />
        </mxCell>
        <mxCell id="tEZHD4hUg0ClfGhjTIx1-36" value="&lt;b&gt;APIGateway&lt;/b&gt;:&lt;div&gt;&lt;br&gt;&lt;div&gt;Manage the incoming requests and expose API endpoints of the system&lt;/div&gt;&lt;/div&gt;" style="rounded=0;whiteSpace=wrap;html=1;" vertex="1" parent="tEZHD4hUg0ClfGhjTIx1-39">
          <mxGeometry x="310" y="482" width="180" height="95" as="geometry" />
        </mxCell>
        <mxCell id="tEZHD4hUg0ClfGhjTIx1-37" value="" style="endArrow=classic;startArrow=classic;html=1;rounded=0;" edge="1" parent="tEZHD4hUg0ClfGhjTIx1-39">
          <mxGeometry width="50" height="50" relative="1" as="geometry">
            <mxPoint x="400" y="472" as="sourcePoint" />
            <mxPoint x="400" y="372" as="targetPoint" />
          </mxGeometry>
        </mxCell>
        <mxCell id="tEZHD4hUg0ClfGhjTIx1-41" value="" style="image;points=[];aspect=fixed;html=1;align=center;shadow=0;dashed=0;image=img/lib/allied_telesis/computer_and_terminals/Personal_Computer.svg;" vertex="1" parent="1">
          <mxGeometry x="970" y="600" width="45.6" height="61.800000000000004" as="geometry" />
        </mxCell>
        <mxCell id="tEZHD4hUg0ClfGhjTIx1-42" value="" style="endArrow=classic;startArrow=classic;html=1;rounded=0;" edge="1" parent="1">
          <mxGeometry width="50" height="50" relative="1" as="geometry">
            <mxPoint x="580" y="630" as="sourcePoint" />
            <mxPoint x="940" y="630" as="targetPoint" />
          </mxGeometry>
        </mxCell>
        <mxCell id="tEZHD4hUg0ClfGhjTIx1-43" value="Client" style="text;html=1;align=center;verticalAlign=middle;resizable=0;points=[];autosize=1;strokeColor=none;fillColor=none;" vertex="1" parent="1">
          <mxGeometry x="965.6" y="672" width="50" height="30" as="geometry" />
        </mxCell>
      </root>
    </mxGraphModel>
  </diagram>
</mxfile>
